<svg width="155" height="64" viewBox="0 0 155 64" fill="none" xmlns="http://www.w3.org/2000/svg">
    <path d="M16.2383 22H13.5054V12.4702H3.11182V22H0.393066V1.38281H3.11182V10.2471H13.5054V1.38281H16.2383V22ZM19.9624 14.1978C19.9624 12.6968 20.255 11.3468 20.8403 10.1479C21.4351 8.94906 22.2563 8.02393 23.3042 7.37256C24.3615 6.72119 25.5651 6.39551 26.915 6.39551C29.0013 6.39551 30.6864 7.11768 31.9702 8.56201C33.2635 10.0063 33.9102 11.9274 33.9102 14.3252V14.5093C33.9102 16.0008 33.6222 17.3413 33.0464 18.5308C32.48 19.7108 31.6634 20.6312 30.5967 21.292C29.5394 21.9528 28.3216 22.2832 26.9434 22.2832C24.8665 22.2832 23.1815 21.561 21.8882 20.1167C20.6043 18.6724 19.9624 16.7607 19.9624 14.3818V14.1978ZM22.5962 14.5093C22.5962 16.2085 22.988 17.5726 23.7715 18.6016C24.5645 19.6305 25.6217 20.145 26.9434 20.145C28.2744 20.145 29.3317 19.6258 30.1152 18.5874C30.8988 17.5396 31.2905 16.0763 31.2905 14.1978C31.2905 12.5174 30.8893 11.158 30.0869 10.1196C29.2939 9.07178 28.2367 8.54785 26.915 8.54785C25.6217 8.54785 24.5786 9.06234 23.7856 10.0913C22.9927 11.1203 22.5962 12.5929 22.5962 14.5093ZM40.0415 22H37.4219V0.25H40.0415V22ZM53.7061 22C53.555 21.6979 53.4323 21.1598 53.3379 20.3857C52.1201 21.6507 50.6663 22.2832 48.9766 22.2832C47.4661 22.2832 46.2248 21.8584 45.2524 21.0088C44.2896 20.1497 43.8081 19.0641 43.8081 17.752C43.8081 16.1566 44.4123 14.9199 45.6206 14.042C46.8384 13.1546 48.547 12.7109 50.7466 12.7109H53.2954V11.5073C53.2954 10.5916 53.0216 9.86475 52.4741 9.32666C51.9266 8.77913 51.1195 8.50537 50.0527 8.50537C49.1182 8.50537 48.3346 8.74137 47.7021 9.21338C47.0697 9.68538 46.7534 10.2565 46.7534 10.9268H44.1196C44.1196 10.1621 44.3887 9.42578 44.9268 8.71777C45.4743 8.00033 46.2106 7.43392 47.1357 7.01855C48.0703 6.60319 49.0946 6.39551 50.2085 6.39551C51.9738 6.39551 53.3568 6.83919 54.3574 7.72656C55.3581 8.60449 55.8773 9.81755 55.915 11.3657V18.4175C55.915 19.8241 56.0944 20.9427 56.4531 21.7734V22H53.7061ZM49.3589 20.0034C50.1802 20.0034 50.959 19.791 51.6953 19.3662C52.4316 18.9414 52.965 18.3892 53.2954 17.7095V14.5659H51.2422C48.0326 14.5659 46.4277 15.5052 46.4277 17.3838C46.4277 18.2051 46.7015 18.847 47.249 19.3096C47.7965 19.7721 48.4998 20.0034 49.3589 20.0034ZM71.1372 1.38281L77.8774 18.2051L84.6177 1.38281H88.1436V22H85.4248V13.9712L85.6797 5.30518L78.9111 22H76.8296L70.0752 5.34766L70.3442 13.9712V22H67.6255V1.38281H71.1372ZM101.992 20.4849C100.973 21.6838 99.4764 22.2832 97.5034 22.2832C95.8703 22.2832 94.6242 21.8112 93.7651 20.8672C92.9155 19.9137 92.486 18.5072 92.4766 16.6475V6.67871H95.0962V16.5767C95.0962 18.8989 96.0402 20.0601 97.9282 20.0601C99.9295 20.0601 101.261 19.3143 101.921 17.8228V6.67871H104.541V22H102.049L101.992 20.4849ZM111.012 6.67871L111.097 8.60449C112.268 7.13184 113.797 6.39551 115.685 6.39551C118.923 6.39551 120.556 8.22217 120.584 11.8755V22H117.965V11.8613C117.955 10.7568 117.701 9.94027 117.2 9.41162C116.709 8.88298 115.94 8.61865 114.892 8.61865C114.042 8.61865 113.297 8.84521 112.655 9.29834C112.013 9.75146 111.513 10.3462 111.154 11.0825V22H108.534V6.67871H111.012ZM123.898 14.2119C123.898 11.8613 124.455 9.97331 125.569 8.54785C126.683 7.11296 128.141 6.39551 129.944 6.39551C131.738 6.39551 133.159 7.00911 134.207 8.23633V0.25H136.826V22H134.419L134.292 20.3574C133.244 21.6413 131.785 22.2832 129.916 22.2832C128.141 22.2832 126.692 21.5563 125.569 20.1025C124.455 18.6488 123.898 16.7513 123.898 14.4102V14.2119ZM126.518 14.5093C126.518 16.2463 126.876 17.6056 127.594 18.5874C128.311 19.5692 129.302 20.0601 130.567 20.0601C132.229 20.0601 133.442 19.3143 134.207 17.8228V10.7852C133.423 9.34082 132.219 8.61865 130.596 8.61865C129.312 8.61865 128.311 9.11426 127.594 10.1055C126.876 11.0967 126.518 12.5646 126.518 14.5093ZM140.21 14.1978C140.21 12.6968 140.503 11.3468 141.088 10.1479C141.683 8.94906 142.504 8.02393 143.552 7.37256C144.61 6.72119 145.813 6.39551 147.163 6.39551C149.249 6.39551 150.934 7.11768 152.218 8.56201C153.512 10.0063 154.158 11.9274 154.158 14.3252V14.5093C154.158 16.0008 153.87 17.3413 153.294 18.5308C152.728 19.7108 151.911 20.6312 150.845 21.292C149.787 21.9528 148.57 22.2832 147.191 22.2832C145.115 22.2832 143.43 21.561 142.136 20.1167C140.852 18.6724 140.21 16.7607 140.21 14.3818V14.1978ZM142.844 14.5093C142.844 16.2085 143.236 17.5726 144.02 18.6016C144.812 19.6305 145.87 20.145 147.191 20.145C148.522 20.145 149.58 19.6258 150.363 18.5874C151.147 17.5396 151.539 16.0763 151.539 14.1978C151.539 12.5174 151.137 11.158 150.335 10.1196C149.542 9.07178 148.485 8.54785 147.163 8.54785C145.87 8.54785 144.827 9.06234 144.034 10.0913C143.241 11.1203 142.844 12.5929 142.844 14.5093Z" fill="black" />
</svg>
